<svg version="1.1" id="Layer_1" xmlns="http://www.w3.org/2000/svg" xmlns:xlink="http://www.w3.org/1999/xlink" x="0px" y="0px"
	 width="100%" viewBox="0 0 1024 1024" enable-background="new 0 0 1024 1024" xml:space="preserve">
<path fill="#070707" opacity="1.000000" stroke="none" 
	d="
M647.000000,1025.000000 
	C431.333344,1025.000000 216.166672,1025.000000 1.000000,1025.000000 
	C1.000000,683.666687 1.000000,342.333344 1.000000,1.000000 
	C342.333344,1.000000 683.666687,1.000000 1025.000000,1.000000 
	C1025.000000,342.333344 1025.000000,683.666687 1025.000000,1025.000000 
	C899.166687,1025.000000 773.333313,1025.000000 647.000000,1025.000000 
M583.048950,462.548584 
	C610.380859,434.521881 637.814087,406.592987 665.004822,378.429962 
	C680.144165,362.749298 696.028748,347.592560 709.551453,330.588470 
	C735.471985,297.994934 744.297302,260.418549 731.608093,220.450455 
	C717.048950,174.592789 685.109131,146.725204 636.472473,141.368927 
	C599.787537,137.328903 568.653320,150.934326 542.403931,176.188934 
	C530.325378,187.809753 520.903687,201.457932 513.579895,216.938522 
	C512.651428,215.188461 511.866333,213.775436 511.141266,212.332260 
	C490.629974,171.507904 443.602570,133.510422 384.721252,141.908051 
	C356.201294,145.975555 333.061584,159.186630 314.802765,181.197952 
	C282.970398,219.572403 281.200378,272.949799 305.985779,315.487488 
	C317.003662,334.396820 331.911102,350.033691 347.243774,365.326569 
	C400.208557,418.153839 453.227600,470.926727 506.203705,523.742676 
	C514.025085,531.540405 514.548767,531.582336 522.355835,523.709717 
	C542.414062,503.483276 562.484985,483.269348 583.048950,462.548584 
M400.981689,601.500000 
	C400.982635,562.340698 400.986115,523.181396 400.981995,484.022064 
	C400.981323,477.631958 400.384979,477.011475 394.238068,477.011749 
	C362.243805,477.013214 330.249542,477.019806 298.255280,477.034668 
	C291.341553,477.037872 291.011902,477.393188 291.011627,484.494141 
	C291.009125,550.482422 291.052734,616.470703 290.979553,682.458923 
	C290.956604,703.141724 292.937958,723.581055 298.070557,743.623474 
	C305.646423,773.206848 318.679779,800.066345 339.366241,822.784058 
	C365.676453,851.677551 398.945251,868.244507 436.572540,877.029846 
	C463.809113,883.389160 491.506042,884.516235 519.270203,884.497986 
	C545.040833,884.481140 570.659851,882.623840 595.757141,876.023865 
	C627.172607,867.762390 655.629517,853.909302 679.151978,831.219788 
	C715.320190,796.332397 730.711670,752.138306 733.762329,703.239868 
	C735.305725,678.500122 734.590576,653.610779 734.641113,628.788513 
	C734.738464,580.964050 734.656433,533.139099 734.643555,485.314392 
	C734.641357,477.255890 734.385498,477.026245 726.202148,477.026825 
	C695.041016,477.028931 663.879944,477.022827 632.718811,477.023590 
	C625.535583,477.023743 625.010559,477.545776 625.007019,484.651825 
	C624.977356,544.807678 625.207397,604.965515 624.742798,665.117920 
	C624.624023,680.493713 623.788940,696.157898 620.695435,711.155823 
	C614.145935,742.908386 595.640869,765.607544 564.321594,776.160645 
	C531.597839,787.187073 498.391693,786.786682 465.452362,777.290833 
	C439.942841,769.936829 421.132019,754.160461 410.424774,729.410400 
	C403.736786,713.950928 401.225922,697.647583 401.075073,680.985352 
	C400.838257,654.825439 400.992676,628.661987 400.981689,601.500000 
z"/>
<path fill="#F82B20" opacity="1.000000" stroke="none" 
	d="
M582.799866,462.799469 
	C562.484985,483.269348 542.414062,503.483276 522.355835,523.709717 
	C514.548767,531.582336 514.025085,531.540405 506.203705,523.742676 
	C453.227600,470.926727 400.208557,418.153839 347.243774,365.326569 
	C331.911102,350.033691 317.003662,334.396820 305.985779,315.487488 
	C281.200378,272.949799 282.970398,219.572403 314.802765,181.197952 
	C333.061584,159.186630 356.201294,145.975555 384.721252,141.908051 
	C443.602570,133.510422 490.629974,171.507904 511.141266,212.332260 
	C511.866333,213.775436 512.651428,215.188461 513.579895,216.938522 
	C520.903687,201.457932 530.325378,187.809753 542.403931,176.188934 
	C568.653320,150.934326 599.787537,137.328903 636.472473,141.368927 
	C685.109131,146.725204 717.048950,174.592789 731.608093,220.450455 
	C744.297302,260.418549 735.471985,297.994934 709.551453,330.588470 
	C696.028748,347.592560 680.144165,362.749298 665.004822,378.429962 
	C637.814087,406.592987 610.380859,434.521881 582.799866,462.799469 
z"/>
<path fill="#FEFCF7" opacity="1.000000" stroke="none" 
	d="
M400.981537,602.000000 
	C400.992676,628.661987 400.838257,654.825439 401.075073,680.985352 
	C401.225922,697.647583 403.736786,713.950928 410.424774,729.410400 
	C421.132019,754.160461 439.942841,769.936829 465.452362,777.290833 
	C498.391693,786.786682 531.597839,787.187073 564.321594,776.160645 
	C595.640869,765.607544 614.145935,742.908386 620.695435,711.155823 
	C623.788940,696.157898 624.624023,680.493713 624.742798,665.117920 
	C625.207397,604.965515 624.977356,544.807678 625.007019,484.651825 
	C625.010559,477.545776 625.535583,477.023743 632.718811,477.023590 
	C663.879944,477.022827 695.041016,477.028931 726.202148,477.026825 
	C734.385498,477.026245 734.641357,477.255890 734.643555,485.314392 
	C734.656433,533.139099 734.738464,580.964050 734.641113,628.788513 
	C734.590576,653.610779 735.305725,678.500122 733.762329,703.239868 
	C730.711670,752.138306 715.320190,796.332397 679.151978,831.219788 
	C655.629517,853.909302 627.172607,867.762390 595.757141,876.023865 
	C570.659851,882.623840 545.040833,884.481140 519.270203,884.497986 
	C491.506042,884.516235 463.809113,883.389160 436.572540,877.029846 
	C398.945251,868.244507 365.676453,851.677551 339.366241,822.784058 
	C318.679779,800.066345 305.646423,773.206848 298.070557,743.623474 
	C292.937958,723.581055 290.956604,703.141724 290.979553,682.458923 
	C291.052734,616.470703 291.009125,550.482422 291.011627,484.494141 
	C291.011902,477.393188 291.341553,477.037872 298.255280,477.034668 
	C330.249542,477.019806 362.243805,477.013214 394.238068,477.011749 
	C400.384979,477.011475 400.981323,477.631958 400.981995,484.022064 
	C400.986115,523.181396 400.982635,562.340698 400.981537,602.000000 
z"/>
</svg>